# xmcd
#
# Track frame offsets: 
#        150
#        10555
#        22567
#        39372
#        53435
#        70465
#        82995
#        95255
#        108122
#        121722
#        134152
#        145767
#        158480
#
# Disc length: 2320 seconds
#
# Revision: 5
# Processed by: cddbd v1.5.1PL0 Copyright (c) Steve Scherf et al.
# Submitted via: ExactAudioCopy v0.95a5
#
DISCID=8b090e0d
DTITLE=Robbie Fulks - Country Love Songs
DYEAR=1996
DGENRE=Country
TTITLE0=Every Kind Of Music But Country
TTITLE1=Rock Bottom, Pop. 1
TTITLE2=The Buck Starts Here
TTITLE3=(I Love) Nickels And Dimes
TTITLE4=Barely Human
TTITLE5=I'd Be Lonesome
TTITLE6=She Took A Lot Of Pills (And Died)
TTITLE7=We'll Burn Together
TTITLE8=Let's Live Together
TTITLE9=The Scrapple Song
TTITLE10=Pete Way's Trousers
TTITLE11=Tears Only Run One Way
TTITLE12=Papa Was A Steel-Headed Man
EXTD=
EXTT0=
EXTT1=
EXTT2=
EXTT3=
EXTT4=
EXTT5=
EXTT6=
EXTT7=
EXTT8=
EXTT9=
EXTT10=
EXTT11=
EXTT12=
PLAYORDER=
